# This file uses centimeters as units for non-parametric coordinates.

g default
v 0.000000 0.000000 -2.368263
v 0.000000 0.000000 4.031736
v -7.999999 0.000000 5.531734
v -7.999999 0.000000 8.731733
v 8.000000 0.000000 5.531734
v 8.000000 0.000000 8.731733
v -17.599998 0.000000 -2.368263
v -17.599998 0.000000 4.031736
vt 0.000000 0.250000
vt 0.000000 0.750000
vt 0.812500 0.750000
vt 0.812500 1.000000
vt 0.187500 0.750000
vt 0.187500 1.000000
vt 0.687500 0.250000
vt 0.687500 0.750000
vn 0.000000 1.000000 0.000000
vn 0.000000 1.000000 0.000000
vn 0.000000 1.000000 0.000000
vn 0.000000 1.000000 0.000000
vn 0.000000 1.000000 0.000000
vn 0.000000 1.000000 0.000000
vn 0.000000 1.000000 0.000000
vn 0.000000 1.000000 0.000000
s off
g ClickMenuControllerTooltips
f 4/4/1 6/6/2 5/5/3 3/3/4
f 2/2/5 1/1/6 7/7/7 8/8/8
